<?xml version="1.0" standalone="no"?><!DOCTYPE svg PUBLIC "-//W3C//DTD SVG 1.1//EN" "http://www.w3.org/Graphics/SVG/1.1/DTD/svg11.dtd"><svg t="1571562002808" class="icon" viewBox="0 0 1024 1024" version="1.1" xmlns="http://www.w3.org/2000/svg" p-id="4053" xmlns:xlink="http://www.w3.org/1999/xlink" width="200" height="200"><defs><style type="text/css"></style></defs><path d="M513.202 2.101C231.01 2.101 2.253 230.858 2.253 513.051S231.01 1024 513.202 1024s510.949-228.757 510.949-510.949S795.395 2.101 513.202 2.101z m0 69.675c243.726 0 441.274 197.548 441.274 441.274 0 86.595-25.312 167.156-68.428 235.312-72.735-77.772-169.128-133.203-278.132-153.638 67.815-34.543 114.311-104.853 114.311-186.163 0-115.444-93.58-209.024-209.024-209.024s-209.025 93.58-209.025 209.024c0 81.311 46.541 151.62 114.31 186.163-108.958 20.436-205.35 75.866-278.109 153.639-43.116-68.155-68.45-148.717-68.45-235.312-0.001-243.726 197.592-441.275 441.273-441.275z m0 487.747c-83.374 0-150.963-67.589-150.963-150.963s67.589-150.962 150.963-150.962 150.962 67.588 150.962 150.962c0 83.375-67.588 150.963-150.962 150.963z m0 394.802c-131.593 0-249.419-57.949-330.275-149.329 80.789-91.539 198.637-149.511 330.275-149.511 131.684 0 249.532 57.972 330.298 149.487-80.856 91.404-198.659 149.353-330.298 149.353z" p-id="4054" fill="#8a8a8a"></path></svg>